<svg version="1.1" xmlns="http://www.w3.org/2000/svg" xmlns:xlink="http://www.w3.org/1999/xlink" width="860" height="308"><defs><clipPath id="VeQXqtTTAEyb"><path fill="none" stroke="none" d=" M 0 0 L 860 0 L 860 308 L 0 308 L 0 0 Z"/></clipPath></defs><g transform="scale(1,1)" clip-path="url(#VeQXqtTTAEyb)"><g><rect fill="rgb(255,255,255)" stroke="none" x="0" y="0" width="860" height="308" fill-opacity="1"/><path fill="none" stroke="rgb(0,0,0)" paint-order="fill stroke markers" d=" M 57.5 2.5 L 57.5 308.5" stroke-opacity="1" stroke-miterlimit="10"/><path fill="none" stroke="rgb(0,0,0)" paint-order="fill stroke markers" d=" M 57.5 1.5 L 53.5 5.5" stroke-opacity="1" stroke-miterlimit="10"/><path fill="none" stroke="rgb(0,0,0)" paint-order="fill stroke markers" d=" M 57.5 1.5 L 61.5 5.5" stroke-opacity="1" stroke-miterlimit="10"/><path fill="none" stroke="rgb(0,0,0)" paint-order="fill stroke markers" d=" M 0.5 279.5 L 858.5 279.5" stroke-opacity="1" stroke-miterlimit="10"/><path fill="none" stroke="rgb(0,0,0)" paint-order="fill stroke markers" d=" M 859.5 279.5 L 855.5 275.5" stroke-opacity="1" stroke-miterlimit="10"/><path fill="none" stroke="rgb(0,0,0)" paint-order="fill stroke markers" d=" M 859.5 279.5 L 855.5 283.5" stroke-opacity="1" stroke-miterlimit="10"/><path fill="none" stroke="rgb(0,0,0)" paint-order="fill stroke markers" d=" M 5.5 279.5 L 5.5 282.5" stroke-opacity="1" stroke-miterlimit="10"/><path fill="none" stroke="rgb(0,0,0)" paint-order="fill stroke markers" d=" M 57.5 279.5 L 57.5 282.5" stroke-opacity="1" stroke-miterlimit="10"/><text fill="none" stroke="rgb(255,255,255)" font-family="geogebra-sans-serif, sans-serif" font-size="12px" font-style="normal" font-weight="normal" text-decoration="normal" x="108" y="295" text-anchor="start" dominant-baseline="alphabetic" stroke-opacity="1" stroke-linejoin="bevel" stroke-miterlimit="10" stroke-width="3">2</text><text fill="rgb(0,0,0)" stroke="none" font-family="geogebra-sans-serif, sans-serif" font-size="12px" font-style="normal" font-weight="normal" text-decoration="normal" x="108" y="295" text-anchor="start" dominant-baseline="alphabetic" fill-opacity="1">2</text><path fill="none" stroke="rgb(0,0,0)" paint-order="fill stroke markers" d=" M 110.5 279.5 L 110.5 282.5" stroke-opacity="1" stroke-miterlimit="10"/><text fill="none" stroke="rgb(255,255,255)" font-family="geogebra-sans-serif, sans-serif" font-size="12px" font-style="normal" font-weight="normal" text-decoration="normal" x="160" y="295" text-anchor="start" dominant-baseline="alphabetic" stroke-opacity="1" stroke-linejoin="bevel" stroke-miterlimit="10" stroke-width="3">4</text><text fill="rgb(0,0,0)" stroke="none" font-family="geogebra-sans-serif, sans-serif" font-size="12px" font-style="normal" font-weight="normal" text-decoration="normal" x="160" y="295" text-anchor="start" dominant-baseline="alphabetic" fill-opacity="1">4</text><path fill="none" stroke="rgb(0,0,0)" paint-order="fill stroke markers" d=" M 162.5 279.5 L 162.5 282.5" stroke-opacity="1" stroke-miterlimit="10"/><text fill="none" stroke="rgb(255,255,255)" font-family="geogebra-sans-serif, sans-serif" font-size="12px" font-style="normal" font-weight="normal" text-decoration="normal" x="212" y="295" text-anchor="start" dominant-baseline="alphabetic" stroke-opacity="1" stroke-linejoin="bevel" stroke-miterlimit="10" stroke-width="3">6</text><text fill="rgb(0,0,0)" stroke="none" font-family="geogebra-sans-serif, sans-serif" font-size="12px" font-style="normal" font-weight="normal" text-decoration="normal" x="212" y="295" text-anchor="start" dominant-baseline="alphabetic" fill-opacity="1">6</text><path fill="none" stroke="rgb(0,0,0)" paint-order="fill stroke markers" d=" M 214.5 279.5 L 214.5 282.5" stroke-opacity="1" stroke-miterlimit="10"/><text fill="none" stroke="rgb(255,255,255)" font-family="geogebra-sans-serif, sans-serif" font-size="12px" font-style="normal" font-weight="normal" text-decoration="normal" x="264" y="295" text-anchor="start" dominant-baseline="alphabetic" stroke-opacity="1" stroke-linejoin="bevel" stroke-miterlimit="10" stroke-width="3">8</text><text fill="rgb(0,0,0)" stroke="none" font-family="geogebra-sans-serif, sans-serif" font-size="12px" font-style="normal" font-weight="normal" text-decoration="normal" x="264" y="295" text-anchor="start" dominant-baseline="alphabetic" fill-opacity="1">8</text><path fill="none" stroke="rgb(0,0,0)" paint-order="fill stroke markers" d=" M 266.5 279.5 L 266.5 282.5" stroke-opacity="1" stroke-miterlimit="10"/><text fill="none" stroke="rgb(255,255,255)" font-family="geogebra-sans-serif, sans-serif" font-size="12px" font-style="normal" font-weight="normal" text-decoration="normal" x="314" y="295" text-anchor="start" dominant-baseline="alphabetic" stroke-opacity="1" stroke-linejoin="bevel" stroke-miterlimit="10" stroke-width="3">10</text><text fill="rgb(0,0,0)" stroke="none" font-family="geogebra-sans-serif, sans-serif" font-size="12px" font-style="normal" font-weight="normal" text-decoration="normal" x="314" y="295" text-anchor="start" dominant-baseline="alphabetic" fill-opacity="1">10</text><path fill="none" stroke="rgb(0,0,0)" paint-order="fill stroke markers" d=" M 319.5 279.5 L 319.5 282.5" stroke-opacity="1" stroke-miterlimit="10"/><text fill="none" stroke="rgb(255,255,255)" font-family="geogebra-sans-serif, sans-serif" font-size="12px" font-style="normal" font-weight="normal" text-decoration="normal" x="366" y="295" text-anchor="start" dominant-baseline="alphabetic" stroke-opacity="1" stroke-linejoin="bevel" stroke-miterlimit="10" stroke-width="3">12</text><text fill="rgb(0,0,0)" stroke="none" font-family="geogebra-sans-serif, sans-serif" font-size="12px" font-style="normal" font-weight="normal" text-decoration="normal" x="366" y="295" text-anchor="start" dominant-baseline="alphabetic" fill-opacity="1">12</text><path fill="none" stroke="rgb(0,0,0)" paint-order="fill stroke markers" d=" M 371.5 279.5 L 371.5 282.5" stroke-opacity="1" stroke-miterlimit="10"/><text fill="none" stroke="rgb(255,255,255)" font-family="geogebra-sans-serif, sans-serif" font-size="12px" font-style="normal" font-weight="normal" text-decoration="normal" x="418" y="295" text-anchor="start" dominant-baseline="alphabetic" stroke-opacity="1" stroke-linejoin="bevel" stroke-miterlimit="10" stroke-width="3">14</text><text fill="rgb(0,0,0)" stroke="none" font-family="geogebra-sans-serif, sans-serif" font-size="12px" font-style="normal" font-weight="normal" text-decoration="normal" x="418" y="295" text-anchor="start" dominant-baseline="alphabetic" fill-opacity="1">14</text><path fill="none" stroke="rgb(0,0,0)" paint-order="fill stroke markers" d=" M 423.5 279.5 L 423.5 282.5" stroke-opacity="1" stroke-miterlimit="10"/><text fill="none" stroke="rgb(255,255,255)" font-family="geogebra-sans-serif, sans-serif" font-size="12px" font-style="normal" font-weight="normal" text-decoration="normal" x="470" y="295" text-anchor="start" dominant-baseline="alphabetic" stroke-opacity="1" stroke-linejoin="bevel" stroke-miterlimit="10" stroke-width="3">16</text><text fill="rgb(0,0,0)" stroke="none" font-family="geogebra-sans-serif, sans-serif" font-size="12px" font-style="normal" font-weight="normal" text-decoration="normal" x="470" y="295" text-anchor="start" dominant-baseline="alphabetic" fill-opacity="1">16</text><path fill="none" stroke="rgb(0,0,0)" paint-order="fill stroke markers" d=" M 475.5 279.5 L 475.5 282.5" stroke-opacity="1" stroke-miterlimit="10"/><text fill="none" stroke="rgb(255,255,255)" font-family="geogebra-sans-serif, sans-serif" font-size="12px" font-style="normal" font-weight="normal" text-decoration="normal" x="522" y="295" text-anchor="start" dominant-baseline="alphabetic" stroke-opacity="1" stroke-linejoin="bevel" stroke-miterlimit="10" stroke-width="3">18</text><text fill="rgb(0,0,0)" stroke="none" font-family="geogebra-sans-serif, sans-serif" font-size="12px" font-style="normal" font-weight="normal" text-decoration="normal" x="522" y="295" text-anchor="start" dominant-baseline="alphabetic" fill-opacity="1">18</text><path fill="none" stroke="rgb(0,0,0)" paint-order="fill stroke markers" d=" M 527.5 279.5 L 527.5 282.5" stroke-opacity="1" stroke-miterlimit="10"/><text fill="none" stroke="rgb(255,255,255)" font-family="geogebra-sans-serif, sans-serif" font-size="12px" font-style="normal" font-weight="normal" text-decoration="normal" x="575" y="295" text-anchor="start" dominant-baseline="alphabetic" stroke-opacity="1" stroke-linejoin="bevel" stroke-miterlimit="10" stroke-width="3">20</text><text fill="rgb(0,0,0)" stroke="none" font-family="geogebra-sans-serif, sans-serif" font-size="12px" font-style="normal" font-weight="normal" text-decoration="normal" x="575" y="295" text-anchor="start" dominant-baseline="alphabetic" fill-opacity="1">20</text><path fill="none" stroke="rgb(0,0,0)" paint-order="fill stroke markers" d=" M 580.5 279.5 L 580.5 282.5" stroke-opacity="1" stroke-miterlimit="10"/><text fill="none" stroke="rgb(255,255,255)" font-family="geogebra-sans-serif, sans-serif" font-size="12px" font-style="normal" font-weight="normal" text-decoration="normal" x="627" y="295" text-anchor="start" dominant-baseline="alphabetic" stroke-opacity="1" stroke-linejoin="bevel" stroke-miterlimit="10" stroke-width="3">22</text><text fill="rgb(0,0,0)" stroke="none" font-family="geogebra-sans-serif, sans-serif" font-size="12px" font-style="normal" font-weight="normal" text-decoration="normal" x="627" y="295" text-anchor="start" dominant-baseline="alphabetic" fill-opacity="1">22</text><path fill="none" stroke="rgb(0,0,0)" paint-order="fill stroke markers" d=" M 632.5 279.5 L 632.5 282.5" stroke-opacity="1" stroke-miterlimit="10"/><text fill="none" stroke="rgb(255,255,255)" font-family="geogebra-sans-serif, sans-serif" font-size="12px" font-style="normal" font-weight="normal" text-decoration="normal" x="679" y="295" text-anchor="start" dominant-baseline="alphabetic" stroke-opacity="1" stroke-linejoin="bevel" stroke-miterlimit="10" stroke-width="3">24</text><text fill="rgb(0,0,0)" stroke="none" font-family="geogebra-sans-serif, sans-serif" font-size="12px" font-style="normal" font-weight="normal" text-decoration="normal" x="679" y="295" text-anchor="start" dominant-baseline="alphabetic" fill-opacity="1">24</text><path fill="none" stroke="rgb(0,0,0)" paint-order="fill stroke markers" d=" M 684.5 279.5 L 684.5 282.5" stroke-opacity="1" stroke-miterlimit="10"/><text fill="none" stroke="rgb(255,255,255)" font-family="geogebra-sans-serif, sans-serif" font-size="12px" font-style="normal" font-weight="normal" text-decoration="normal" x="731" y="295" text-anchor="start" dominant-baseline="alphabetic" stroke-opacity="1" stroke-linejoin="bevel" stroke-miterlimit="10" stroke-width="3">26</text><text fill="rgb(0,0,0)" stroke="none" font-family="geogebra-sans-serif, sans-serif" font-size="12px" font-style="normal" font-weight="normal" text-decoration="normal" x="731" y="295" text-anchor="start" dominant-baseline="alphabetic" fill-opacity="1">26</text><path fill="none" stroke="rgb(0,0,0)" paint-order="fill stroke markers" d=" M 736.5 279.5 L 736.5 282.5" stroke-opacity="1" stroke-miterlimit="10"/><text fill="none" stroke="rgb(255,255,255)" font-family="geogebra-sans-serif, sans-serif" font-size="12px" font-style="normal" font-weight="normal" text-decoration="normal" x="784" y="295" text-anchor="start" dominant-baseline="alphabetic" stroke-opacity="1" stroke-linejoin="bevel" stroke-miterlimit="10" stroke-width="3">28</text><text fill="rgb(0,0,0)" stroke="none" font-family="geogebra-sans-serif, sans-serif" font-size="12px" font-style="normal" font-weight="normal" text-decoration="normal" x="784" y="295" text-anchor="start" dominant-baseline="alphabetic" fill-opacity="1">28</text><path fill="none" stroke="rgb(0,0,0)" paint-order="fill stroke markers" d=" M 789.5 279.5 L 789.5 282.5" stroke-opacity="1" stroke-miterlimit="10"/><text fill="none" stroke="rgb(255,255,255)" font-family="geogebra-sans-serif, sans-serif" font-size="12px" font-style="normal" font-weight="normal" text-decoration="normal" x="836" y="295" text-anchor="start" dominant-baseline="alphabetic" stroke-opacity="1" stroke-linejoin="bevel" stroke-miterlimit="10" stroke-width="3">30</text><text fill="rgb(0,0,0)" stroke="none" font-family="geogebra-sans-serif, sans-serif" font-size="12px" font-style="normal" font-weight="normal" text-decoration="normal" x="836" y="295" text-anchor="start" dominant-baseline="alphabetic" fill-opacity="1">30</text><path fill="none" stroke="rgb(0,0,0)" paint-order="fill stroke markers" d=" M 841.5 279.5 L 841.5 282.5" stroke-opacity="1" stroke-miterlimit="10"/><path fill="none" stroke="rgb(0,0,0)" paint-order="fill stroke markers" d=" M 54.5 227.5 L 57.5 227.5" stroke-opacity="1" stroke-miterlimit="10"/><path fill="none" stroke="rgb(0,0,0)" paint-order="fill stroke markers" d=" M 54.5 175.5 L 57.5 175.5" stroke-opacity="1" stroke-miterlimit="10"/><path fill="none" stroke="rgb(0,0,0)" paint-order="fill stroke markers" d=" M 54.5 123.5 L 57.5 123.5" stroke-opacity="1" stroke-miterlimit="10"/><path fill="none" stroke="rgb(0,0,0)" paint-order="fill stroke markers" d=" M 54.5 70.5 L 57.5 70.5" stroke-opacity="1" stroke-miterlimit="10"/><path fill="none" stroke="rgb(0,0,0)" paint-order="fill stroke markers" d=" M 54.5 18.5 L 57.5 18.5" stroke-opacity="1" stroke-miterlimit="10"/><text fill="none" stroke="rgb(255,255,255)" font-family="geogebra-sans-serif, sans-serif" font-size="12px" font-style="normal" font-weight="normal" text-decoration="normal" x="44" y="232" text-anchor="start" dominant-baseline="alphabetic" stroke-opacity="1" stroke-linejoin="bevel" stroke-miterlimit="10" stroke-width="3">2</text><text fill="rgb(0,0,0)" stroke="none" font-family="geogebra-sans-serif, sans-serif" font-size="12px" font-style="normal" font-weight="normal" text-decoration="normal" x="44" y="232" text-anchor="start" dominant-baseline="alphabetic" fill-opacity="1">2</text><text fill="none" stroke="rgb(255,255,255)" font-family="geogebra-sans-serif, sans-serif" font-size="12px" font-style="normal" font-weight="normal" text-decoration="normal" x="44" y="180" text-anchor="start" dominant-baseline="alphabetic" stroke-opacity="1" stroke-linejoin="bevel" stroke-miterlimit="10" stroke-width="3">4</text><text fill="rgb(0,0,0)" stroke="none" font-family="geogebra-sans-serif, sans-serif" font-size="12px" font-style="normal" font-weight="normal" text-decoration="normal" x="44" y="180" text-anchor="start" dominant-baseline="alphabetic" fill-opacity="1">4</text><text fill="none" stroke="rgb(255,255,255)" font-family="geogebra-sans-serif, sans-serif" font-size="12px" font-style="normal" font-weight="normal" text-decoration="normal" x="44" y="128" text-anchor="start" dominant-baseline="alphabetic" stroke-opacity="1" stroke-linejoin="bevel" stroke-miterlimit="10" stroke-width="3">6</text><text fill="rgb(0,0,0)" stroke="none" font-family="geogebra-sans-serif, sans-serif" font-size="12px" font-style="normal" font-weight="normal" text-decoration="normal" x="44" y="128" text-anchor="start" dominant-baseline="alphabetic" fill-opacity="1">6</text><text fill="none" stroke="rgb(255,255,255)" font-family="geogebra-sans-serif, sans-serif" font-size="12px" font-style="normal" font-weight="normal" text-decoration="normal" x="44" y="75" text-anchor="start" dominant-baseline="alphabetic" stroke-opacity="1" stroke-linejoin="bevel" stroke-miterlimit="10" stroke-width="3">8</text><text fill="rgb(0,0,0)" stroke="none" font-family="geogebra-sans-serif, sans-serif" font-size="12px" font-style="normal" font-weight="normal" text-decoration="normal" x="44" y="75" text-anchor="start" dominant-baseline="alphabetic" fill-opacity="1">8</text><text fill="none" stroke="rgb(255,255,255)" font-family="geogebra-sans-serif, sans-serif" font-size="12px" font-style="normal" font-weight="normal" text-decoration="normal" x="37" y="23" text-anchor="start" dominant-baseline="alphabetic" stroke-opacity="1" stroke-linejoin="bevel" stroke-miterlimit="10" stroke-width="3">10</text><text fill="rgb(0,0,0)" stroke="none" font-family="geogebra-sans-serif, sans-serif" font-size="12px" font-style="normal" font-weight="normal" text-decoration="normal" x="37" y="23" text-anchor="start" dominant-baseline="alphabetic" fill-opacity="1">10</text><text fill="none" stroke="rgb(255,255,255)" font-family="geogebra-sans-serif, sans-serif" font-size="12px" font-style="normal" font-weight="normal" text-decoration="normal" x="44" y="295" text-anchor="start" dominant-baseline="alphabetic" stroke-opacity="1" stroke-linejoin="bevel" stroke-miterlimit="10" stroke-width="3">0</text><text fill="rgb(0,0,0)" stroke="none" font-family="geogebra-sans-serif, sans-serif" font-size="12px" font-style="normal" font-weight="normal" text-decoration="normal" x="44" y="295" text-anchor="start" dominant-baseline="alphabetic" fill-opacity="1">0</text><path fill="none" stroke="rgb(97,97,97)" paint-order="fill stroke markers" d=" M 787.2005401034559 211.95902777509588 C 699.0742760805681 118.76803593480014 573.5258866297753 70.43717935257791 445.65898859339165 80.47987607022839 C 317.792090557008 90.52257278787897 201.32840337318441 157.861115682775 128.8314403520331 263.66749414607784" stroke-opacity="0.8" stroke-linecap="round" stroke-linejoin="round" stroke-miterlimit="10" stroke-width="2.5"/><path fill="none" stroke="rgb(21,101,192)" paint-order="fill stroke markers" d=" M 128.8314403520331 263.6674941460778 L 255.27490057307156 142.87412942702258" stroke-opacity="0.8" stroke-linecap="round" stroke-linejoin="round" stroke-miterlimit="10" stroke-width="2.5"/><path fill="none" stroke="rgb(21,101,192)" paint-order="fill stroke markers" d=" M 255.27490057307156 142.87412942702258 L 500.46542018610415 79.7262371884016" stroke-opacity="0.8" stroke-linecap="round" stroke-linejoin="round" stroke-miterlimit="10" stroke-width="2.5"/><path fill="none" stroke="rgb(21,101,192)" paint-order="fill stroke markers" d=" M 500.46542018610415 79.7262371884016 L 731.4023000156093 162.48999653237672" stroke-opacity="0.8" stroke-linecap="round" stroke-linejoin="round" stroke-miterlimit="10" stroke-width="2.5"/><path fill="none" stroke="rgb(211,47,47)" paint-order="fill stroke markers" d=" M 255.27490057307156 142.87412942702258 L 150.33033977666608 160.93128521664323" stroke-opacity="0.8" stroke-linecap="round" stroke-linejoin="round" stroke-miterlimit="10" stroke-width="2.5"/><path fill="none" stroke="rgb(211,47,47)" paint-order="fill stroke markers" d=" M 150.33033977666608 160.93128521664323 L 128.8314403520331 263.6674941460778" stroke-opacity="0.8" stroke-linecap="round" stroke-linejoin="round" stroke-miterlimit="10" stroke-width="2.5"/><path fill="none" stroke="rgb(211,47,47)" paint-order="fill stroke markers" d=" M 255.27490057307156 142.87412942702258 L 363.0603108220507 56.92996603889921" stroke-opacity="0.8" stroke-linecap="round" stroke-linejoin="round" stroke-miterlimit="10" stroke-width="2.5"/><path fill="none" stroke="rgb(211,47,47)" paint-order="fill stroke markers" d=" M 363.0603108220507 56.92996603889921 L 500.46542018610415 79.7262371884016" stroke-opacity="0.8" stroke-linecap="round" stroke-linejoin="round" stroke-miterlimit="10" stroke-width="2.5"/><path fill="none" stroke="rgb(211,47,47)" paint-order="fill stroke markers" d=" M 500.46542018610415 79.7262371884016 L 621.4878312031103 44.32374553250591" stroke-opacity="0.8" stroke-linecap="round" stroke-linejoin="round" stroke-miterlimit="10" stroke-width="2.5"/><path fill="none" stroke="rgb(211,47,47)" paint-order="fill stroke markers" d=" M 621.4878312031103 44.32374553250591 L 731.4023000156093 162.48999653237672" stroke-opacity="0.8" stroke-linecap="round" stroke-linejoin="round" stroke-miterlimit="10" stroke-width="2.5"/><path fill="none" stroke="rgb(211,47,47)" paint-order="fill stroke markers" d=" M 128.8314403520331 263.6674941460778 L 95.17812506119598 263.3568268310883" stroke-opacity="0.8" stroke-linecap="round" stroke-linejoin="round" stroke-miterlimit="10" stroke-width="2.5"/><path fill="none" stroke="rgb(211,47,47)" paint-order="fill stroke markers" d=" M 731.4023000156093 162.48999653237672 L 738.0953708872471 142.0219544570534" stroke-opacity="0.8" stroke-linecap="round" stroke-linejoin="round" stroke-miterlimit="10" stroke-width="2.5"/><g transform="scale(19,19)"><g transform="translate(18.46734913157895,2.438214263157895)"><path fill="rgb(0,0,0)" stroke="none" paint-order="stroke fill markers" d=" M 0.494 -0.555 L 0.08 -0.555 L 0.08 -0.607 L 0.494 -0.607 L 0.494 -0.555 Z"/></g><g transform="translate(18.42105263157895,2.688214263157895)"><path fill="rgb(0,0,0)" stroke="none" paint-order="stroke fill markers" d=" M 0.316 -0.659 L 0.249 -0.39 Q 0.317 -0.452 0.4 -0.452 Q 0.464 -0.452 0.5065000000000001 -0.4255 Q 0.549 -0.399 0.549 -0.336 Q 0.549 -0.28200000000000003 0.484 -0.114 Q 0.467 -0.069 0.467 -0.049 Q 0.467 -0.039 0.47000000000000003 -0.034 Q 0.47300000000000003 -0.029 0.47600000000000003 -0.0285 Q 0.47900000000000004 -0.028 0.484 -0.028 Q 0.493 -0.028 0.503 -0.032 Q 0.513 -0.036000000000000004 0.529 -0.0465 Q 0.545 -0.057 0.5605 -0.0835 Q 0.5760000000000001 -0.11 0.587 -0.149 Q 0.591 -0.162 0.61 -0.162 Q 0.634 -0.162 0.634 -0.148 Q 0.634 -0.138 0.624 -0.1145 Q 0.614 -0.091 0.596 -0.0625 Q 0.578 -0.034 0.5465 -0.013000000000000001 Q 0.515 0.008 0.47800000000000004 0.008 Q 0.433 0.008 0.399 -0.0165 Q 0.365 -0.041 0.365 -0.082 Q 0.365 -0.099 0.379 -0.133 Q 0.442 -0.295 0.442 -0.357 Q 0.442 -0.41600000000000004 0.392 -0.41600000000000004 Q 0.308 -0.41600000000000004 0.243 -0.326 Q 0.229 -0.307 0.223 -0.28500000000000003 L 0.163 -0.048 Q 0.149 0.008 0.098 0.008 Q 0.077 0.008 0.0635 -0.005 Q 0.05 -0.018000000000000002 0.05 -0.037 Q 0.05 -0.044 0.054 -0.06 L 0.198 -0.637 Q 0.185 -0.639 0.156 -0.639 Q 0.13 -0.639 0.13 -0.657 Q 0.13 -0.67 0.136 -0.677 Q 0.14200000000000002 -0.684 0.147 -0.685 Q 0.152 -0.686 0.162 -0.687 L 0.291 -0.6930000000000001 Q 0.293 -0.6940000000000001 0.298 -0.6940000000000001 Q 0.32 -0.6940000000000001 0.32 -0.676 Q 0.32 -0.673 0.316 -0.659 Z"/></g><g transform="translate(19.08864263157895,2.838214263157895) scale(0.7,0.7)"><path fill="rgb(0,0,0)" stroke="none" paint-order="stroke fill markers" d=" M 0.28 -0.376 Q 0.35100000000000003 -0.452 0.445 -0.452 Q 0.509 -0.452 0.5515 -0.4255 Q 0.594 -0.399 0.594 -0.336 Q 0.594 -0.281 0.532 -0.122 Q 0.512 -0.07200000000000001 0.512 -0.049 Q 0.512 -0.039 0.515 -0.034 Q 0.518 -0.029 0.521 -0.0285 Q 0.524 -0.028 0.529 -0.028 Q 0.538 -0.028 0.548 -0.032 Q 0.558 -0.036000000000000004 0.5735 -0.0465 Q 0.589 -0.057 0.6045 -0.0835 Q 0.62 -0.11 0.632 -0.149 Q 0.636 -0.162 0.655 -0.162 Q 0.679 -0.162 0.679 -0.148 Q 0.679 -0.138 0.669 -0.1145 Q 0.659 -0.091 0.641 -0.0625 Q 0.623 -0.034 0.5915 -0.013000000000000001 Q 0.56 0.008 0.523 0.008 Q 0.47800000000000004 0.008 0.444 -0.0165 Q 0.41000000000000003 -0.041 0.41000000000000003 -0.082 Q 0.41000000000000003 -0.099 0.424 -0.133 Q 0.487 -0.299 0.487 -0.357 Q 0.487 -0.41600000000000004 0.437 -0.41600000000000004 Q 0.384 -0.41600000000000004 0.334 -0.377 Q 0.312 -0.359 0.2925 -0.3325 Q 0.273 -0.306 0.272 -0.299 Q 0.271 -0.297 0.257 -0.241 Q 0.243 -0.185 0.241 -0.18 Q 0.227 -0.12 0.213 -0.068 Q 0.209 -0.053 0.20550000000000002 -0.043000000000000003 Q 0.202 -0.033 0.1945 -0.0195 Q 0.187 -0.006 0.17350000000000002 0.001 Q 0.16 0.008 0.14200000000000002 0.008 Q 0.12 0.008 0.1075 -0.0055 Q 0.095 -0.019 0.095 -0.036000000000000004 Q 0.095 -0.039 0.10300000000000001 -0.076 L 0.139 -0.216 Q 0.14400000000000002 -0.23800000000000002 0.161 -0.306 Q 0.17500000000000002 -0.362 0.17500000000000002 -0.379 Q 0.17500000000000002 -0.41600000000000004 0.152 -0.41600000000000004 Q 0.11 -0.41600000000000004 0.084 -0.316 Q 0.077 -0.28800000000000003 0.076 -0.28700000000000003 Q 0.07100000000000001 -0.28200000000000003 0.056 -0.28200000000000003 Q 0.032 -0.28200000000000003 0.032 -0.296 Q 0.032 -0.304 0.043000000000000003 -0.3365 Q 0.054 -0.369 0.07 -0.395 Q 0.105 -0.452 0.157 -0.452 Q 0.2 -0.452 0.23500000000000001 -0.432 Q 0.27 -0.41200000000000003 0.28 -0.376 Z"/></g><g transform="translate(19.58771533157895,2.688214263157895)"><path fill="rgb(0,0,0)" stroke="none" paint-order="stroke fill markers" d=" M 0.379 0.225 L 0.38 0.228 Q 0.382 0.232 0.382 0.23500000000000001 Q 0.382 0.249 0.364 0.249 Q 0.34500000000000003 0.249 0.2885 0.1965 Q 0.232 0.14400000000000002 0.188 0.067 Q 0.108 -0.074 0.108 -0.251 Q 0.108 -0.518 0.28700000000000003 -0.6960000000000001 Q 0.34400000000000003 -0.75 0.364 -0.75 Q 0.382 -0.75 0.382 -0.736 Q 0.382 -0.731 0.366 -0.715 Q 0.20500000000000002 -0.553 0.20500000000000002 -0.25 Q 0.20500000000000002 -0.106 0.243 0.009000000000000001 Q 0.28500000000000003 0.138 0.379 0.225 Z"/></g><g transform="translate(20.03493533157895,2.688214263157895)"><path fill="rgb(0,0,0)" stroke="none" paint-order="stroke fill markers" d=" M 0.536 -0.401 Q 0.516 -0.41600000000000004 0.488 -0.41600000000000004 Q 0.461 -0.41600000000000004 0.4375 -0.392 Q 0.41400000000000003 -0.368 0.403 -0.325 Q 0.4 -0.316 0.385 -0.257 Q 0.37 -0.198 0.368 -0.189 Q 0.34600000000000003 -0.099 0.34600000000000003 -0.078 Q 0.34600000000000003 -0.028 0.402 -0.028 Q 0.44 -0.028 0.482 -0.0575 Q 0.524 -0.08700000000000001 0.544 -0.149 Q 0.548 -0.162 0.5670000000000001 -0.162 Q 0.591 -0.162 0.591 -0.148 Q 0.591 -0.134 0.578 -0.1095 Q 0.5650000000000001 -0.085 0.542 -0.058 Q 0.519 -0.031 0.48 -0.0115 Q 0.441 0.008 0.397 0.008 Q 0.295 0.008 0.259 -0.053 Q 0.215 0.008 0.152 0.008 Q 0.105 0.008 0.07150000000000001 -0.0165 Q 0.038 -0.041 0.038 -0.08 Q 0.038 -0.115 0.06 -0.1365 Q 0.082 -0.158 0.11 -0.158 Q 0.133 -0.158 0.1465 -0.14400000000000002 Q 0.16 -0.13 0.16 -0.112 Q 0.16 -0.091 0.1455 -0.07050000000000001 Q 0.131 -0.05 0.106 -0.043000000000000003 Q 0.126 -0.028 0.154 -0.028 Q 0.181 -0.028 0.20450000000000002 -0.051500000000000004 Q 0.228 -0.075 0.23900000000000002 -0.11900000000000001 L 0.273 -0.256 Q 0.296 -0.34800000000000003 0.296 -0.366 Q 0.296 -0.41600000000000004 0.24 -0.41600000000000004 Q 0.202 -0.41600000000000004 0.16 -0.3865 Q 0.11800000000000001 -0.357 0.098 -0.295 Q 0.094 -0.28200000000000003 0.075 -0.28200000000000003 Q 0.051000000000000004 -0.28200000000000003 0.051000000000000004 -0.296 Q 0.051000000000000004 -0.31 0.064 -0.3345 Q 0.077 -0.359 0.1 -0.386 Q 0.123 -0.41300000000000003 0.162 -0.4325 Q 0.201 -0.452 0.245 -0.452 Q 0.34700000000000003 -0.452 0.383 -0.391 Q 0.427 -0.452 0.49 -0.452 Q 0.537 -0.452 0.5705 -0.4275 Q 0.604 -0.403 0.604 -0.364 Q 0.604 -0.329 0.582 -0.3075 Q 0.56 -0.28600000000000003 0.532 -0.28600000000000003 Q 0.509 -0.28600000000000003 0.4955 -0.3 Q 0.482 -0.314 0.482 -0.332 Q 0.482 -0.353 0.4965 -0.3735 Q 0.511 -0.394 0.536 -0.401 Z"/></g><g transform="translate(20.693962331578952,2.688214263157895)"><path fill="rgb(0,0,0)" stroke="none" paint-order="stroke fill markers" d=" M 0.338 -0.25 Q 0.338 0.017 0.159 0.195 Q 0.10200000000000001 0.249 0.082 0.249 Q 0.064 0.249 0.064 0.23500000000000001 Q 0.064 0.23 0.08 0.214 Q 0.241 0.052000000000000005 0.241 -0.251 Q 0.241 -0.55 0.081 -0.713 Q 0.064 -0.729 0.064 -0.736 Q 0.064 -0.75 0.082 -0.75 Q 0.101 -0.75 0.1575 -0.6975 Q 0.214 -0.645 0.258 -0.5680000000000001 Q 0.338 -0.427 0.338 -0.25 Z"/></g></g><g transform="scale(19,19)"><g transform="translate(29.31578947368421,4.592105263157895)"><path fill="rgb(0,0,0)" stroke="none" paint-order="stroke fill markers" d=" M 0.28400000000000003 -0.659 L 0.146 -0.108 Q 0.14 -0.08 0.14 -0.064 Q 0.14 -0.028 0.163 -0.028 Q 0.20600000000000002 -0.028 0.231 -0.128 Q 0.23800000000000002 -0.156 0.23900000000000002 -0.157 Q 0.244 -0.162 0.259 -0.162 Q 0.28300000000000003 -0.162 0.28300000000000003 -0.148 Q 0.28300000000000003 -0.14 0.272 -0.107 Q 0.261 -0.074 0.245 -0.049 Q 0.21 0.008 0.158 0.008 Q 0.109 0.008 0.07100000000000001 -0.018000000000000002 Q 0.033 -0.044 0.033 -0.09 Q 0.033 -0.106 0.038 -0.124 L 0.166 -0.637 Q 0.153 -0.639 0.124 -0.639 Q 0.098 -0.639 0.098 -0.657 Q 0.098 -0.67 0.10400000000000001 -0.677 Q 0.11 -0.684 0.115 -0.685 Q 0.12 -0.686 0.13 -0.687 L 0.259 -0.6930000000000001 Q 0.261 -0.6940000000000001 0.266 -0.6940000000000001 Q 0.28800000000000003 -0.6940000000000001 0.28800000000000003 -0.676 Q 0.28800000000000003 -0.673 0.28400000000000003 -0.659 Z"/></g><g transform="translate(29.672733473684207,4.592105263157895)"><path fill="rgb(0,0,0)" stroke="none" paint-order="stroke fill markers" d=" M 0.5690000000000001 -0.279 Q 0.5690000000000001 -0.23 0.5485 -0.1805 Q 0.528 -0.131 0.49 -0.0885 Q 0.452 -0.046 0.3905 -0.019 Q 0.329 0.008 0.254 0.008 Q 0.156 0.008 0.101 -0.038 Q 0.046 -0.084 0.046 -0.165 Q 0.046 -0.214 0.0665 -0.2635 Q 0.08700000000000001 -0.313 0.125 -0.3555 Q 0.163 -0.398 0.2245 -0.425 Q 0.28600000000000003 -0.452 0.361 -0.452 Q 0.459 -0.452 0.514 -0.406 Q 0.5690000000000001 -0.36 0.5690000000000001 -0.279 M 0.189 -0.049 Q 0.189 -0.049 0.203 -0.0385 Q 0.217 -0.028 0.256 -0.028 Q 0.295 -0.028 0.3335 -0.049 Q 0.372 -0.07 0.398 -0.115 Q 0.419 -0.152 0.4365 -0.2225 Q 0.454 -0.293 0.454 -0.323 Q 0.454 -0.374 0.426 -0.395 Q 0.398 -0.41600000000000004 0.359 -0.41600000000000004 Q 0.32 -0.41600000000000004 0.28150000000000003 -0.395 Q 0.243 -0.374 0.217 -0.329 Q 0.196 -0.292 0.1785 -0.2215 Q 0.161 -0.151 0.161 -0.121 Q 0.161 -0.07 0.189 -0.049 Z"/></g><g transform="translate(30.257452473684207,4.592105263157895)"><path fill="rgb(0,0,0)" stroke="none" paint-order="stroke fill markers" d=" M 0.53 -0.365 L 0.423 0.061 Q 0.41200000000000003 0.10400000000000001 0.3835 0.1335 Q 0.355 0.163 0.3155 0.177 Q 0.276 0.191 0.24 0.1965 Q 0.20400000000000001 0.202 0.165 0.202 Q 0.132 0.202 0.109 0.2 Q 0.08600000000000001 0.198 0.059500000000000004 0.192 Q 0.033 0.186 0.0195 0.1705 Q 0.006 0.155 0.006 0.132 Q 0.006 0.099 0.028 0.0785 Q 0.05 0.058 0.077 0.058 Q 0.1 0.058 0.1135 0.07200000000000001 Q 0.127 0.08600000000000001 0.127 0.10400000000000001 Q 0.127 0.14 0.096 0.162 Q 0.122 0.166 0.164 0.166 Q 0.224 0.166 0.266 0.131 Q 0.301 0.10300000000000001 0.315 0.044 Q 0.322 0.019 0.334 -0.031 Q 0.28300000000000003 0 0.224 0 Q 0.152 0 0.1005 -0.0405 Q 0.049 -0.081 0.049 -0.163 Q 0.049 -0.231 0.0815 -0.296 Q 0.114 -0.361 0.18 -0.40650000000000003 Q 0.246 -0.452 0.33 -0.452 Q 0.398 -0.452 0.436 -0.41100000000000003 Q 0.457 -0.435 0.487 -0.435 Q 0.505 -0.435 0.5195 -0.424 Q 0.534 -0.41300000000000003 0.534 -0.391 Q 0.534 -0.381 0.53 -0.365 M 0.355 -0.113 L 0.41300000000000003 -0.34500000000000003 Q 0.41600000000000004 -0.356 0.41600000000000004 -0.36 Q 0.41600000000000004 -0.372 0.394 -0.394 Q 0.372 -0.41600000000000004 0.332 -0.41600000000000004 Q 0.251 -0.41600000000000004 0.21 -0.316 Q 0.197 -0.28300000000000003 0.1795 -0.2135 Q 0.162 -0.14400000000000002 0.162 -0.111 Q 0.162 -0.073 0.1805 -0.0545 Q 0.199 -0.036000000000000004 0.23 -0.036000000000000004 Q 0.28600000000000003 -0.036000000000000004 0.339 -0.084 Q 0.34900000000000003 -0.094 0.355 -0.113 Z"/></g><g transform="translate(30.83939447368421,4.592105263157895)"><path fill="rgb(0,0,0)" stroke="none" paint-order="stroke fill markers" d=" M 0.429 -0.397 L 0.375 -0.095 Q 0.35000000000000003 0.048 0.306 0.115 Q 0.298 0.128 0.28400000000000003 0.1445 Q 0.27 0.161 0.23750000000000002 0.1815 Q 0.20500000000000002 0.202 0.171 0.202 Q 0.128 0.202 0.095 0.181 Q 0.062 0.16 0.062 0.122 Q 0.062 0.093 0.083 0.07050000000000001 Q 0.10400000000000001 0.048 0.134 0.048 Q 0.154 0.048 0.1685 0.0605 Q 0.183 0.073 0.183 0.094 Q 0.183 0.115 0.1705 0.133 Q 0.158 0.151 0.139 0.16 Q 0.153 0.166 0.17300000000000001 0.166 Q 0.203 0.166 0.223 0.115 Q 0.225 0.109 0.229 0.09 Q 0.233 0.07100000000000001 0.23700000000000002 0.051000000000000004 Q 0.241 0.031 0.241 0.029 L 0.317 -0.397 L 0.225 -0.397 Q 0.192 -0.397 0.192 -0.41500000000000004 Q 0.192 -0.429 0.198 -0.4355 Q 0.20400000000000001 -0.442 0.21 -0.443 Q 0.216 -0.444 0.228 -0.444 L 0.326 -0.444 Q 0.338 -0.513 0.3425 -0.535 Q 0.34700000000000003 -0.557 0.355 -0.583 Q 0.363 -0.609 0.374 -0.627 Q 0.421 -0.7020000000000001 0.512 -0.7020000000000001 Q 0.56 -0.7020000000000001 0.593 -0.6805 Q 0.626 -0.659 0.626 -0.622 Q 0.626 -0.593 0.605 -0.5705 Q 0.584 -0.548 0.554 -0.548 Q 0.534 -0.548 0.5195 -0.5605 Q 0.505 -0.5730000000000001 0.505 -0.594 Q 0.505 -0.614 0.517 -0.632 Q 0.529 -0.65 0.547 -0.659 Q 0.53 -0.666 0.512 -0.666 Q 0.496 -0.666 0.483 -0.654 Q 0.47300000000000003 -0.645 0.47000000000000003 -0.625 L 0.437 -0.444 L 0.549 -0.444 Q 0.583 -0.444 0.583 -0.426 Q 0.583 -0.41200000000000003 0.577 -0.4055 Q 0.5710000000000001 -0.399 0.5650000000000001 -0.398 Q 0.559 -0.397 0.546 -0.397 L 0.429 -0.397 Z"/></g><g transform="translate(31.51786847368421,4.592105263157895)"><path fill="rgb(0,0,0)" stroke="none" paint-order="stroke fill markers" d=" M 0.379 0.225 L 0.38 0.228 Q 0.382 0.232 0.382 0.23500000000000001 Q 0.382 0.249 0.364 0.249 Q 0.34500000000000003 0.249 0.2885 0.1965 Q 0.232 0.14400000000000002 0.188 0.067 Q 0.108 -0.074 0.108 -0.251 Q 0.108 -0.518 0.28700000000000003 -0.6960000000000001 Q 0.34400000000000003 -0.75 0.364 -0.75 Q 0.382 -0.75 0.382 -0.736 Q 0.382 -0.731 0.366 -0.715 Q 0.20500000000000002 -0.553 0.20500000000000002 -0.25 Q 0.20500000000000002 -0.106 0.243 0.009000000000000001 Q 0.28500000000000003 0.138 0.379 0.225 Z"/></g><g transform="translate(31.96508847368421,4.592105263157895)"><path fill="rgb(0,0,0)" stroke="none" paint-order="stroke fill markers" d=" M 0.536 -0.401 Q 0.516 -0.41600000000000004 0.488 -0.41600000000000004 Q 0.461 -0.41600000000000004 0.4375 -0.392 Q 0.41400000000000003 -0.368 0.403 -0.325 Q 0.4 -0.316 0.385 -0.257 Q 0.37 -0.198 0.368 -0.189 Q 0.34600000000000003 -0.099 0.34600000000000003 -0.078 Q 0.34600000000000003 -0.028 0.402 -0.028 Q 0.44 -0.028 0.482 -0.0575 Q 0.524 -0.08700000000000001 0.544 -0.149 Q 0.548 -0.162 0.5670000000000001 -0.162 Q 0.591 -0.162 0.591 -0.148 Q 0.591 -0.134 0.578 -0.1095 Q 0.5650000000000001 -0.085 0.542 -0.058 Q 0.519 -0.031 0.48 -0.0115 Q 0.441 0.008 0.397 0.008 Q 0.295 0.008 0.259 -0.053 Q 0.215 0.008 0.152 0.008 Q 0.105 0.008 0.07150000000000001 -0.0165 Q 0.038 -0.041 0.038 -0.08 Q 0.038 -0.115 0.06 -0.1365 Q 0.082 -0.158 0.11 -0.158 Q 0.133 -0.158 0.1465 -0.14400000000000002 Q 0.16 -0.13 0.16 -0.112 Q 0.16 -0.091 0.1455 -0.07050000000000001 Q 0.131 -0.05 0.106 -0.043000000000000003 Q 0.126 -0.028 0.154 -0.028 Q 0.181 -0.028 0.20450000000000002 -0.051500000000000004 Q 0.228 -0.075 0.23900000000000002 -0.11900000000000001 L 0.273 -0.256 Q 0.296 -0.34800000000000003 0.296 -0.366 Q 0.296 -0.41600000000000004 0.24 -0.41600000000000004 Q 0.202 -0.41600000000000004 0.16 -0.3865 Q 0.11800000000000001 -0.357 0.098 -0.295 Q 0.094 -0.28200000000000003 0.075 -0.28200000000000003 Q 0.051000000000000004 -0.28200000000000003 0.051000000000000004 -0.296 Q 0.051000000000000004 -0.31 0.064 -0.3345 Q 0.077 -0.359 0.1 -0.386 Q 0.123 -0.41300000000000003 0.162 -0.4325 Q 0.201 -0.452 0.245 -0.452 Q 0.34700000000000003 -0.452 0.383 -0.391 Q 0.427 -0.452 0.49 -0.452 Q 0.537 -0.452 0.5705 -0.4275 Q 0.604 -0.403 0.604 -0.364 Q 0.604 -0.329 0.582 -0.3075 Q 0.56 -0.28600000000000003 0.532 -0.28600000000000003 Q 0.509 -0.28600000000000003 0.4955 -0.3 Q 0.482 -0.314 0.482 -0.332 Q 0.482 -0.353 0.4965 -0.3735 Q 0.511 -0.394 0.536 -0.401 Z"/></g><g transform="translate(32.62411547368421,4.592105263157895)"><path fill="rgb(0,0,0)" stroke="none" paint-order="stroke fill markers" d=" M 0.338 -0.25 Q 0.338 0.017 0.159 0.195 Q 0.10200000000000001 0.249 0.082 0.249 Q 0.064 0.249 0.064 0.23500000000000001 Q 0.064 0.23 0.08 0.214 Q 0.241 0.052000000000000005 0.241 -0.251 Q 0.241 -0.55 0.081 -0.713 Q 0.064 -0.729 0.064 -0.736 Q 0.064 -0.75 0.082 -0.75 Q 0.101 -0.75 0.1575 -0.6975 Q 0.214 -0.645 0.258 -0.5680000000000001 Q 0.338 -0.427 0.338 -0.25 Z"/></g></g><g transform="scale(19,19)"><g transform="translate(19.42105263157895,7.0131578947368425)"><path fill="rgb(0,0,0)" stroke="none" paint-order="stroke fill markers" d=" M 0.316 -0.659 L 0.249 -0.39 Q 0.317 -0.452 0.4 -0.452 Q 0.464 -0.452 0.5065000000000001 -0.4255 Q 0.549 -0.399 0.549 -0.336 Q 0.549 -0.28200000000000003 0.484 -0.114 Q 0.467 -0.069 0.467 -0.049 Q 0.467 -0.039 0.47000000000000003 -0.034 Q 0.47300000000000003 -0.029 0.47600000000000003 -0.0285 Q 0.47900000000000004 -0.028 0.484 -0.028 Q 0.493 -0.028 0.503 -0.032 Q 0.513 -0.036000000000000004 0.529 -0.0465 Q 0.545 -0.057 0.5605 -0.0835 Q 0.5760000000000001 -0.11 0.587 -0.149 Q 0.591 -0.162 0.61 -0.162 Q 0.634 -0.162 0.634 -0.148 Q 0.634 -0.138 0.624 -0.1145 Q 0.614 -0.091 0.596 -0.0625 Q 0.578 -0.034 0.5465 -0.013000000000000001 Q 0.515 0.008 0.47800000000000004 0.008 Q 0.433 0.008 0.399 -0.0165 Q 0.365 -0.041 0.365 -0.082 Q 0.365 -0.099 0.379 -0.133 Q 0.442 -0.295 0.442 -0.357 Q 0.442 -0.41600000000000004 0.392 -0.41600000000000004 Q 0.308 -0.41600000000000004 0.243 -0.326 Q 0.229 -0.307 0.223 -0.28500000000000003 L 0.163 -0.048 Q 0.149 0.008 0.098 0.008 Q 0.077 0.008 0.0635 -0.005 Q 0.05 -0.018000000000000002 0.05 -0.037 Q 0.05 -0.044 0.054 -0.06 L 0.198 -0.637 Q 0.185 -0.639 0.156 -0.639 Q 0.13 -0.639 0.13 -0.657 Q 0.13 -0.67 0.136 -0.677 Q 0.14200000000000002 -0.684 0.147 -0.685 Q 0.152 -0.686 0.162 -0.687 L 0.291 -0.6930000000000001 Q 0.293 -0.6940000000000001 0.298 -0.6940000000000001 Q 0.32 -0.6940000000000001 0.32 -0.676 Q 0.32 -0.673 0.316 -0.659 Z"/></g><rect fill="rgb(0,0,0)" stroke="none" x="19.42105263157895" y="7.133154894736842" width="0.66759" height="0.039999"/><g transform="translate(20.08864263157895,7.248152894736842) scale(0.7,0.7)"><path fill="rgb(0,0,0)" stroke="none" paint-order="stroke fill markers" d=" M 0.28 -0.376 Q 0.35100000000000003 -0.452 0.445 -0.452 Q 0.509 -0.452 0.5515 -0.4255 Q 0.594 -0.399 0.594 -0.336 Q 0.594 -0.281 0.532 -0.122 Q 0.512 -0.07200000000000001 0.512 -0.049 Q 0.512 -0.039 0.515 -0.034 Q 0.518 -0.029 0.521 -0.0285 Q 0.524 -0.028 0.529 -0.028 Q 0.538 -0.028 0.548 -0.032 Q 0.558 -0.036000000000000004 0.5735 -0.0465 Q 0.589 -0.057 0.6045 -0.0835 Q 0.62 -0.11 0.632 -0.149 Q 0.636 -0.162 0.655 -0.162 Q 0.679 -0.162 0.679 -0.148 Q 0.679 -0.138 0.669 -0.1145 Q 0.659 -0.091 0.641 -0.0625 Q 0.623 -0.034 0.5915 -0.013000000000000001 Q 0.56 0.008 0.523 0.008 Q 0.47800000000000004 0.008 0.444 -0.0165 Q 0.41000000000000003 -0.041 0.41000000000000003 -0.082 Q 0.41000000000000003 -0.099 0.424 -0.133 Q 0.487 -0.299 0.487 -0.357 Q 0.487 -0.41600000000000004 0.437 -0.41600000000000004 Q 0.384 -0.41600000000000004 0.334 -0.377 Q 0.312 -0.359 0.2925 -0.3325 Q 0.273 -0.306 0.272 -0.299 Q 0.271 -0.297 0.257 -0.241 Q 0.243 -0.185 0.241 -0.18 Q 0.227 -0.12 0.213 -0.068 Q 0.209 -0.053 0.20550000000000002 -0.043000000000000003 Q 0.202 -0.033 0.1945 -0.0195 Q 0.187 -0.006 0.17350000000000002 0.001 Q 0.16 0.008 0.14200000000000002 0.008 Q 0.12 0.008 0.1075 -0.0055 Q 0.095 -0.019 0.095 -0.036000000000000004 Q 0.095 -0.039 0.10300000000000001 -0.076 L 0.139 -0.216 Q 0.14400000000000002 -0.23800000000000002 0.161 -0.306 Q 0.17500000000000002 -0.362 0.17500000000000002 -0.379 Q 0.17500000000000002 -0.41600000000000004 0.152 -0.41600000000000004 Q 0.11 -0.41600000000000004 0.084 -0.316 Q 0.077 -0.28800000000000003 0.076 -0.28700000000000003 Q 0.07100000000000001 -0.28200000000000003 0.056 -0.28200000000000003 Q 0.032 -0.28200000000000003 0.032 -0.296 Q 0.032 -0.304 0.043000000000000003 -0.3365 Q 0.054 -0.369 0.07 -0.395 Q 0.105 -0.452 0.157 -0.452 Q 0.2 -0.452 0.23500000000000001 -0.432 Q 0.27 -0.41200000000000003 0.28 -0.376 Z"/></g><g transform="translate(20.58771533157895,7.0131578947368425)"><path fill="rgb(0,0,0)" stroke="none" paint-order="stroke fill markers" d=" M 0.379 0.225 L 0.38 0.228 Q 0.382 0.232 0.382 0.23500000000000001 Q 0.382 0.249 0.364 0.249 Q 0.34500000000000003 0.249 0.2885 0.1965 Q 0.232 0.14400000000000002 0.188 0.067 Q 0.108 -0.074 0.108 -0.251 Q 0.108 -0.518 0.28700000000000003 -0.6960000000000001 Q 0.34400000000000003 -0.75 0.364 -0.75 Q 0.382 -0.75 0.382 -0.736 Q 0.382 -0.731 0.366 -0.715 Q 0.20500000000000002 -0.553 0.20500000000000002 -0.25 Q 0.20500000000000002 -0.106 0.243 0.009000000000000001 Q 0.28500000000000003 0.138 0.379 0.225 Z"/></g><g transform="translate(21.03493533157895,7.0131578947368425)"><path fill="rgb(0,0,0)" stroke="none" paint-order="stroke fill markers" d=" M 0.536 -0.401 Q 0.516 -0.41600000000000004 0.488 -0.41600000000000004 Q 0.461 -0.41600000000000004 0.4375 -0.392 Q 0.41400000000000003 -0.368 0.403 -0.325 Q 0.4 -0.316 0.385 -0.257 Q 0.37 -0.198 0.368 -0.189 Q 0.34600000000000003 -0.099 0.34600000000000003 -0.078 Q 0.34600000000000003 -0.028 0.402 -0.028 Q 0.44 -0.028 0.482 -0.0575 Q 0.524 -0.08700000000000001 0.544 -0.149 Q 0.548 -0.162 0.5670000000000001 -0.162 Q 0.591 -0.162 0.591 -0.148 Q 0.591 -0.134 0.578 -0.1095 Q 0.5650000000000001 -0.085 0.542 -0.058 Q 0.519 -0.031 0.48 -0.0115 Q 0.441 0.008 0.397 0.008 Q 0.295 0.008 0.259 -0.053 Q 0.215 0.008 0.152 0.008 Q 0.105 0.008 0.07150000000000001 -0.0165 Q 0.038 -0.041 0.038 -0.08 Q 0.038 -0.115 0.06 -0.1365 Q 0.082 -0.158 0.11 -0.158 Q 0.133 -0.158 0.1465 -0.14400000000000002 Q 0.16 -0.13 0.16 -0.112 Q 0.16 -0.091 0.1455 -0.07050000000000001 Q 0.131 -0.05 0.106 -0.043000000000000003 Q 0.126 -0.028 0.154 -0.028 Q 0.181 -0.028 0.20450000000000002 -0.051500000000000004 Q 0.228 -0.075 0.23900000000000002 -0.11900000000000001 L 0.273 -0.256 Q 0.296 -0.34800000000000003 0.296 -0.366 Q 0.296 -0.41600000000000004 0.24 -0.41600000000000004 Q 0.202 -0.41600000000000004 0.16 -0.3865 Q 0.11800000000000001 -0.357 0.098 -0.295 Q 0.094 -0.28200000000000003 0.075 -0.28200000000000003 Q 0.051000000000000004 -0.28200000000000003 0.051000000000000004 -0.296 Q 0.051000000000000004 -0.31 0.064 -0.3345 Q 0.077 -0.359 0.1 -0.386 Q 0.123 -0.41300000000000003 0.162 -0.4325 Q 0.201 -0.452 0.245 -0.452 Q 0.34700000000000003 -0.452 0.383 -0.391 Q 0.427 -0.452 0.49 -0.452 Q 0.537 -0.452 0.5705 -0.4275 Q 0.604 -0.403 0.604 -0.364 Q 0.604 -0.329 0.582 -0.3075 Q 0.56 -0.28600000000000003 0.532 -0.28600000000000003 Q 0.509 -0.28600000000000003 0.4955 -0.3 Q 0.482 -0.314 0.482 -0.332 Q 0.482 -0.353 0.4965 -0.3735 Q 0.511 -0.394 0.536 -0.401 Z"/></g><g transform="translate(21.693962331578952,7.0131578947368425)"><path fill="rgb(0,0,0)" stroke="none" paint-order="stroke fill markers" d=" M 0.338 -0.25 Q 0.338 0.017 0.159 0.195 Q 0.10200000000000001 0.249 0.082 0.249 Q 0.064 0.249 0.064 0.23500000000000001 Q 0.064 0.23 0.08 0.214 Q 0.241 0.052000000000000005 0.241 -0.251 Q 0.241 -0.55 0.081 -0.713 Q 0.064 -0.729 0.064 -0.736 Q 0.064 -0.75 0.082 -0.75 Q 0.101 -0.75 0.1575 -0.6975 Q 0.214 -0.645 0.258 -0.5680000000000001 Q 0.338 -0.427 0.338 -0.25 Z"/></g></g></g></g></svg>